<svg width="1240" height="405" viewBox="0 0 1240 405" fill="none" xmlns="http://www.w3.org/2000/svg">
<g filter="url(#filter0_d_5107_178)">
<path d="M80 202.102C80 134.667 134.667 80 202.102 80V80C269.537 80 324.204 134.667 324.204 202.102V202.102C324.204 269.537 269.537 324.204 202.102 324.204V324.204C134.667 324.204 80 269.537 80 202.102V202.102Z" fill="url(#paint0_linear_5107_178)" shape-rendering="crispEdges"/>
<path d="M80 202.102C80 134.667 134.667 80 202.102 80V80C269.537 80 324.204 134.667 324.204 202.102V202.102C324.204 269.537 269.537 324.204 202.102 324.204V324.204C134.667 324.204 80 269.537 80 202.102V202.102Z" fill="#05121F" shape-rendering="crispEdges"/>
<path d="M87.6313 202.102C87.6313 138.882 138.882 87.6313 202.102 87.6313V87.6313C265.322 87.6313 316.573 138.882 316.573 202.102V202.102C316.573 265.322 265.322 316.573 202.102 316.573V316.573C138.882 316.573 87.6313 265.322 87.6313 202.102V202.102Z" fill="url(#paint1_linear_5107_178)"/>
<path fill-rule="evenodd" clip-rule="evenodd" d="M243.289 209.528L243.102 166.524C243.094 164.31 242.212 162.212 240.646 160.648C239.081 159.083 236.981 158.193 234.765 158.193C232.548 158.193 230.448 159.083 228.883 160.648C227.317 162.213 226.427 164.311 226.427 166.527V237.676C226.427 244.15 223.854 250.306 219.278 254.881C214.701 259.457 208.542 262.029 202.068 262.029C195.593 262.029 189.432 259.457 184.857 254.881C180.28 250.306 177.708 244.15 177.708 237.676V166.527C177.708 164.311 176.817 162.213 175.252 160.648C173.686 159.083 171.587 158.193 169.37 158.193C167.153 158.193 165.054 159.083 163.488 160.648C161.923 162.213 161.042 164.31 161.034 166.524L160.847 209.528C160.178 214.911 157.722 219.893 153.884 223.731C149.308 228.306 143.148 230.879 136.673 230.879C130.199 230.879 124.038 228.306 119.463 223.731C115.624 219.893 113.168 214.909 112.499 209.523L112.301 197.696L90.31 197.692H80.0001L80.0827 196.015C81.5717 165.701 94.2426 137.22 115.704 115.763C138.683 92.7904 169.569 80 202.066 80C234.564 80 265.449 92.7904 288.427 115.763C303.464 130.796 314.365 149.508 319.941 170.028L320.489 172.045H303.864L303.517 170.916C298.436 154.375 289.333 139.321 277.098 127.088C257.132 107.128 230.302 96.0173 202.066 96.0173C173.829 96.0173 146.998 107.128 127.032 127.088C112.352 141.766 102.271 160.392 98.1092 180.731L97.9152 181.679H128.335V206.525C128.335 208.741 129.226 210.841 130.791 212.406C132.356 213.97 134.456 214.861 136.673 214.861C138.889 214.861 140.989 213.97 142.555 212.406C144.12 210.841 145.011 208.742 145.011 206.525V166.528C145.011 160.056 147.583 153.898 152.16 149.323C156.735 144.747 162.896 142.175 169.37 142.175C175.846 142.175 182.004 144.747 186.58 149.323C191.157 153.897 193.729 160.056 193.729 166.528V237.677C193.729 239.893 194.62 241.992 196.185 243.557C197.751 245.122 199.851 246.011 202.068 246.011C204.284 246.011 206.384 245.122 207.949 243.557C209.515 241.992 210.404 239.893 210.404 237.677V166.528C210.404 160.056 212.977 153.898 217.554 149.323C222.13 144.747 228.289 142.175 234.765 142.175C241.24 142.175 247.399 144.747 251.975 149.323C256.551 153.897 259.124 160.056 259.124 166.528V206.525C259.124 208.741 260.014 210.841 261.579 212.406C263.145 213.97 265.244 214.861 267.461 214.861C269.678 214.861 271.777 213.97 273.343 212.406C274.908 210.841 275.799 208.742 275.799 206.525V181.679H306.216L306.214 181.667H322.505L322.718 183.017C323.708 189.328 324.204 195.714 324.204 202.101C324.204 234.59 311.409 265.468 288.431 288.441C265.452 311.414 234.566 324.204 202.07 324.204C169.572 324.204 138.686 311.414 115.707 288.441C94.4469 267.186 81.8008 239.021 80.1291 209.001L80.0352 207.313H96.0732L96.1671 208.813C97.78 234.636 108.741 258.825 127.037 277.116C147.002 297.077 173.834 308.187 202.07 308.187C230.307 308.187 257.137 297.077 277.103 277.116C297.07 257.155 308.183 230.332 308.183 202.103C308.183 200.888 308.163 199.674 308.122 198.46L308.096 197.698H291.836L291.637 209.523C290.968 214.909 288.512 219.893 284.673 223.731C280.097 228.306 273.937 230.879 267.462 230.879C260.988 230.879 254.827 228.306 250.251 223.731C246.414 219.894 243.958 214.913 243.289 209.528Z" fill="url(#paint2_linear_5107_178)"/>
</g>
<path d="M451.723 181.157V250.331H468.91V153.873H450.455L420.446 199.483L390.438 153.873H371.983V250.331H389.17V181.431L420.023 226.629H420.588L451.723 181.157Z" fill="#222222"/>
<path d="M585.441 220.566L532.726 153.873H516.689V250.331H533.876V181.708L588.14 250.331H602.627V153.873H585.441V220.566Z" fill="#222222"/>
<path d="M723.384 153.873H650.406V250.331H724.089V235.035H667.594V209.266H704.022V193.971H667.594V169.168H723.384V153.873Z" fill="#222222"/>
<path d="M844.845 153.873H771.868V250.331H845.547V235.035H789.054V209.266H825.483V193.971H789.054V169.168H844.845V153.873Z" fill="#222222"/>
<g clip-path="url(#clip0_5107_178)">
<path d="M1120.71 210.83V249.188H1103.17V211.243L1063.84 152.949H1084.35L1112.08 195.57L1140.09 152.949H1160.04L1120.71 210.83Z" fill="#222222"/>
<path d="M1120.71 210.83V249.188H1103.17V211.243L1063.84 152.949H1084.35L1112.08 195.57L1140.09 152.949H1160.04L1120.71 210.83Z" fill="url(#paint3_linear_5107_178)"/>
<path d="M1029.08 152.262L1072.65 249.189H1054.26L1044.22 225.954H997.394L987.209 249.189H969.385L1012.96 152.262H1029.08ZM1037.85 210.968L1020.74 172.472L1003.76 210.968H1037.85Z" fill="#222222"/>
<path d="M1029.08 152.262L1072.65 249.189H1054.26L1044.22 225.954H997.394L987.209 249.189H969.385L1012.96 152.262H1029.08ZM1037.85 210.968L1020.74 172.472L1003.76 210.968H1037.85Z" fill="url(#paint4_linear_5107_178)"/>
<path d="M969.999 185.258C969.999 190.665 968.962 195.432 966.887 199.556C964.812 203.681 961.983 207.118 958.399 209.867C954.815 212.617 950.619 214.725 945.809 216.192C940.999 217.567 935.859 218.254 930.389 218.254H910.726V249.188H893.326V152.949H932.37C938.123 152.949 943.31 153.728 947.931 155.286C952.646 156.753 956.607 158.907 959.814 161.748C963.114 164.589 965.614 167.98 967.311 171.922C969.104 175.863 969.999 180.308 969.999 185.258ZM952.316 185.67C952.316 179.896 950.383 175.588 946.516 172.747C942.65 169.814 937.463 168.347 930.955 168.347H910.726V202.993H930.955C937.557 202.993 942.744 201.435 946.516 198.319C950.383 195.111 952.316 190.895 952.316 185.67Z" fill="#222222"/>
<path d="M969.999 185.258C969.999 190.665 968.962 195.432 966.887 199.556C964.812 203.681 961.983 207.118 958.399 209.867C954.815 212.617 950.619 214.725 945.809 216.192C940.999 217.567 935.859 218.254 930.389 218.254H910.726V249.188H893.326V152.949H932.37C938.123 152.949 943.31 153.728 947.931 155.286C952.646 156.753 956.607 158.907 959.814 161.748C963.114 164.589 965.614 167.98 967.311 171.922C969.104 175.863 969.999 180.308 969.999 185.258ZM952.316 185.67C952.316 179.896 950.383 175.588 946.516 172.747C942.65 169.814 937.463 168.347 930.955 168.347H910.726V202.993H930.955C937.557 202.993 942.744 201.435 946.516 198.319C950.383 195.111 952.316 190.895 952.316 185.67Z" fill="url(#paint5_linear_5107_178)"/>
</g>
<path d="M913.37 279.838C908.084 275.58 904.486 270.073 902.577 263.319C900.668 256.564 900.007 249.075 900.595 240.852C901.182 232.629 902.724 224.039 905.22 215.082C907.716 205.978 910.653 197.094 914.031 188.43C917.555 179.62 921.226 171.25 925.044 163.321C929.008 155.391 932.606 148.416 935.836 142.396C939.214 136.376 942.004 131.603 944.206 128.079C946.556 124.555 947.877 122.866 948.171 123.013C949.346 123.6 950.153 124.408 950.594 125.436C951.034 126.317 951.255 127.345 951.255 128.52C951.401 129.694 951.401 130.869 951.255 132.044C951.108 133.218 950.961 134.32 950.814 135.348C950.667 135.641 950.227 136.522 949.492 137.991C948.758 139.312 948.318 140.12 948.171 140.414C936.717 165.523 928.127 186.595 922.4 203.628C916.674 220.515 913.15 234.024 911.828 244.156C910.506 254.288 911.094 261.41 913.59 265.521C916.233 269.486 920.124 271.101 925.264 270.367C930.55 269.486 936.791 266.623 943.986 261.777C951.328 256.784 959.037 250.397 967.113 242.614C975.336 234.832 983.633 225.948 992.003 215.963C1000.37 205.978 1008.3 195.552 1015.79 184.686C1023.43 173.82 1030.18 162.88 1036.05 151.867C1042.07 140.854 1046.77 130.355 1050.15 120.37C1050.44 120.076 1050.81 119.636 1051.25 119.048C1051.84 118.314 1052.28 117.947 1052.57 117.947C1056.69 120.737 1058.23 125.509 1057.2 132.264C1056.17 138.872 1053.31 146.654 1048.61 155.612C1044.06 164.569 1037.96 174.26 1030.33 184.686C1022.84 195.112 1014.62 205.39 1005.66 215.522C996.848 225.654 987.744 235.272 978.346 244.376C968.949 253.334 959.991 260.896 951.475 267.063C942.958 273.23 935.322 277.636 928.568 280.279C921.96 282.775 916.894 282.628 913.37 279.838ZM1054.86 274.772C1054.57 273.744 1054.5 272.349 1054.64 270.587C1054.94 268.678 1055.23 266.769 1055.53 264.86C1055.97 262.952 1056.41 261.263 1056.85 259.794C1057.29 258.326 1057.51 257.518 1057.51 257.372L1107.29 127.859C1108.31 125.216 1109.27 124.261 1110.15 124.995C1111.03 125.583 1111.69 126.978 1112.13 129.18C1112.72 131.236 1113.01 133.659 1113.01 136.449C1113.01 139.092 1112.72 141.221 1112.13 142.837C1107.43 153.996 1102.66 165.23 1097.82 176.536C1093.12 187.696 1088.56 199.003 1084.16 210.456C1079.9 221.763 1075.86 233.216 1072.05 244.817C1068.23 256.27 1065 267.944 1062.35 279.838C1061.18 280.572 1060.15 280.866 1059.27 280.719C1058.54 280.572 1057.8 280.205 1057.07 279.618C1056.48 278.884 1055.97 278.076 1055.53 277.195C1055.23 276.314 1055.01 275.506 1054.86 274.772Z" fill="black"/>
<defs>
<filter id="filter0_d_5107_178" x="7.50193" y="7.50193" width="389.2" height="389.2" filterUnits="userSpaceOnUse" color-interpolation-filters="sRGB">
<feFlood flood-opacity="0" result="BackgroundImageFix"/>
<feColorMatrix in="SourceAlpha" type="matrix" values="0 0 0 0 0 0 0 0 0 0 0 0 0 0 0 0 0 0 127 0" result="hardAlpha"/>
<feMorphology radius="22.8941" operator="erode" in="SourceAlpha" result="effect1_dropShadow_5107_178"/>
<feOffset/>
<feGaussianBlur stdDeviation="47.6961"/>
<feComposite in2="hardAlpha" operator="out"/>
<feColorMatrix type="matrix" values="0 0 0 0 1 0 0 0 0 0.410735 0 0 0 0 0 0 0 0 0.3 0"/>
<feBlend mode="normal" in2="BackgroundImageFix" result="effect1_dropShadow_5107_178"/>
<feBlend mode="normal" in="SourceGraphic" in2="effect1_dropShadow_5107_178" result="shape"/>
</filter>
<linearGradient id="paint0_linear_5107_178" x1="80" y1="80" x2="324.204" y2="324.204" gradientUnits="userSpaceOnUse">
<stop stop-color="#FF6900"/>
<stop offset="0.5" stop-color="#FE9A00"/>
<stop offset="1" stop-color="#FDC700"/>
</linearGradient>
<linearGradient id="paint1_linear_5107_178" x1="227.491" y1="296.88" x2="280.423" y2="51.9381" gradientUnits="userSpaceOnUse">
<stop stop-color="#05121F"/>
<stop offset="1" stop-color="#05121F"/>
</linearGradient>
<linearGradient id="paint2_linear_5107_178" x1="131.484" y1="288.96" x2="269.905" y2="120.523" gradientUnits="userSpaceOnUse">
<stop stop-color="#E88C1F"/>
<stop offset="1" stop-color="#FFDC46"/>
</linearGradient>
<linearGradient id="paint3_linear_5107_178" x1="1099.29" y1="249.881" x2="1137.09" y2="113.949" gradientUnits="userSpaceOnUse">
<stop stop-color="#E88C1F"/>
<stop offset="1" stop-color="#FFDC46"/>
</linearGradient>
<linearGradient id="paint4_linear_5107_178" x1="1011.69" y1="249.881" x2="1044.15" y2="111.373" gradientUnits="userSpaceOnUse">
<stop stop-color="#E88C1F"/>
<stop offset="1" stop-color="#FFDC46"/>
</linearGradient>
<linearGradient id="paint5_linear_5107_178" x1="929.405" y1="249.881" x2="969.866" y2="113.909" gradientUnits="userSpaceOnUse">
<stop stop-color="#E88C1F"/>
<stop offset="1" stop-color="#FFDC46"/>
</linearGradient>
<clipPath id="clip0_5107_178">
<rect width="266.674" height="99.682" fill="white" transform="translate(893.326 152.261)"/>
</clipPath>
</defs>
</svg>
